<?xml version="1.0" standalone="no"?>
<!DOCTYPE svg PUBLIC "-//W3C//DTD SVG 20010904//EN"
 "http://www.w3.org/TR/2001/REC-SVG-20010904/DTD/svg10.dtd">
<svg version="1.0" xmlns="http://www.w3.org/2000/svg"
 width="238.000000pt" height="238.000000pt" viewBox="0 0 238.000000 238.000000"
 preserveAspectRatio="xMidYMid meet">

<g transform="translate(0.000000,238.000000) scale(0.100000,-0.100000)"
fill="#000000" stroke="none">
<path d="M920 2365 c-120 -27 -205 -57 -302 -106 -327 -168 -549 -475 -603
-836 -19 -126 -19 -340 0 -466 44 -293 200 -554 440 -736 94 -71 268 -155 390
-189 96 -26 109 -27 345 -27 236 0 249 1 345 27 122 34 296 118 390 189 239
182 396 444 440 736 19 126 19 340 0 466 -44 293 -200 554 -440 736 -92 69
-267 155 -385 188 -88 24 -112 26 -325 29 -174 3 -246 0 -295 -11z m106 -623
c72 -22 143 -69 180 -117 l27 -35 46 45 c26 26 81 64 127 86 68 34 94 42 162
46 136 10 255 -24 330 -92 93 -83 138 -198 149 -372 l6 -103 -388 0 -388 0 6
-67 c14 -172 99 -290 235 -329 64 -19 188 -20 258 -3 65 16 165 61 209 94 44
34 47 28 43 -90 l-3 -89 -60 -24 c-110 -44 -203 -63 -312 -63 -181 -1 -301 40
-401 137 -31 30 -58 54 -60 54 -2 0 -29 -23 -59 -50 -153 -140 -403 -189 -557
-110 -57 30 -113 86 -144 145 -33 65 -42 195 -18 277 31 107 135 188 286 222
59 14 295 36 379 36 l34 0 -5 64 c-10 124 -64 177 -202 197 -93 14 -185 2
-319 -42 -49 -16 -91 -29 -93 -29 -2 0 -4 42 -4 94 l0 94 73 16 c182 41 351
43 463 8z"/>
<path d="M1486 1604 c-76 -24 -158 -112 -184 -195 l-20 -64 291 -3 c159 -1
292 0 295 3 10 9 -29 140 -52 175 -37 56 -115 93 -206 97 -48 2 -92 -3 -124
-13z"/>
<path d="M845 1180 c-122 -17 -209 -60 -241 -122 -23 -44 -16 -157 12 -195 34
-46 79 -66 159 -71 115 -7 249 42 336 124 25 24 26 26 13 75 -7 28 -16 84 -20
125 l-7 74 -96 -1 c-53 -1 -123 -5 -156 -9z"/>
</g>
</svg>